<svg xmlns="http://www.w3.org/2000/svg" viewBox="0 0 317.65 48.89"><defs><style>.cls-1{fill:#00589d;}.cls-1,.cls-2,.cls-3{fill-rule:evenodd;}.cls-2{fill:#fff;}.cls-3{fill:#df1221;}</style></defs><g id="Capa_2" data-name="Capa 2"><g id="Capa_1-2" data-name="Capa 1"><path class="cls-1" d="M55.59,10.11c7.08,9.18,1.06,23.72-13.43,32.4s-31.9,8.5-39-.69C-4.33,32.09,2,18.05,16.51,9.32,28.68,2,43,1.06,51.42,6.39,59.78,1.11,66.12,0,66.12,0,62.4,1.43,56,6,53.77,8.16a16.75,16.75,0,0,1,1.82,1.95"/><path class="cls-2" d="M11.58,17.73s22.77,2.67,22,22.86c0,0,7.23-33.75,32.56-40.59,0,0-21.62-.76-32.49,25.67,0,0-4.61-9.38-22.05-7.94"/><path class="cls-2" d="M13.29,32.46c.4-2.69,4-3.77,9.63-3.4a42.51,42.51,0,0,1,5.38.52,22.13,22.13,0,0,0-6-2.16c-7.13-1.5-13.57.42-14.39,4.27s4,8.05,11.16,9.55c6.52,1.51,13-.73,14.07-3.14C31.29,40,27,40.16,21.45,39c-1.59-.32-8.74-2.38-8.16-6.57"/><path class="cls-3" d="M85,32a7.77,7.77,0,0,1-1.38,3.26,8.55,8.55,0,0,1-2.43,2.29,12.34,12.34,0,0,1-3.57,1.54,17.49,17.49,0,0,1-3.5.43V35a6.76,6.76,0,0,0,1.84-.42,3.41,3.41,0,0,0,1.52-1.08,3.76,3.76,0,0,0,.71-1.59A2.4,2.4,0,0,0,78,30.09a2.35,2.35,0,0,0-1.28-1,5.45,5.45,0,0,0-1.6-.24l-1.05,0V24.54c.46,0,.81,0,1.05,0a4.06,4.06,0,0,0,1.45-.34,2.58,2.58,0,0,0,1.28-1,3.38,3.38,0,0,0,.58-1.43,2.4,2.4,0,0,0-.09-1.21,1.39,1.39,0,0,0-.84-.93A3.32,3.32,0,0,0,76,19.35l-2-.05V14.76l2.45,0a32.6,32.6,0,0,1,4.34.21,7.3,7.3,0,0,1,2.64.89,3.87,3.87,0,0,1,1.74,1.93,4.78,4.78,0,0,1,.14,2.76,6.79,6.79,0,0,1-1.57,3.23,7.58,7.58,0,0,1-3,2.08l0,.11a5.88,5.88,0,0,1,3.52,2A4.83,4.83,0,0,1,85,32M74.07,39.54c-.35,0-.71,0-1.1,0l-10.51,0,4.78-24.79,6.83,0V19.3H73l-1,5.24h2.14v4.29c-.5,0-1.1,0-1.74,0H71.12L69.91,35h.36c1.71,0,2.9,0,3.54,0a.74.74,0,0,0,.26,0Z"/><path class="cls-3" d="M97.5,37.59c-.47.33-.93.62-1.31.88a4.58,4.58,0,0,1-.73.46V36a9,9,0,0,0,.9-.27,7.78,7.78,0,0,0,1.72-1l.73-3.93L96.25,31a6.52,6.52,0,0,0-.79.12V27.62c1.28-.15,2.64-.27,4.07-.34l0-.1A1.81,1.81,0,0,0,98.76,25a7.51,7.51,0,0,0-3.3-.62v-4c.6-.05,1.18-.07,1.78-.07q5.15,0,7.14,1.65c1.36,1.09,1.81,2.73,1.41,4.92l-2.48,12.74-6.19,0Zm-2,1.34c-.24.11-.48.23-.77.35a8.37,8.37,0,0,1-1.71.57,9.42,9.42,0,0,1-2.24.21,5,5,0,0,1-4-1.69,4.77,4.77,0,0,1-.9-4.18,6.78,6.78,0,0,1,1.53-3.38,7.5,7.5,0,0,1,2.92-2,16.36,16.36,0,0,1,4.19-1.05l1-.11v3.54a6.49,6.49,0,0,0-1.17.31,3.59,3.59,0,0,0-1.43.78,2.92,2.92,0,0,0-.72,1.46c-.16.88,0,1.47.41,1.81a3.46,3.46,0,0,0,2.1.5,4.67,4.67,0,0,0,.81-.07Zm0-14.58h-.17a10.72,10.72,0,0,0-2.62.38,23.12,23.12,0,0,0-3,1l-.52,0L90,21.18c.64-.14,1.66-.35,3.07-.57.81-.11,1.6-.21,2.41-.26Z"/><path class="cls-3" d="M125.75,39.57h-6.2l1.79-9.29c.16-.76.26-1.52.36-2.26a4.68,4.68,0,0,0-.06-1.67,1.44,1.44,0,0,0-.73-.93,4.25,4.25,0,0,0-1.55-.28,5.26,5.26,0,0,0-1.57.26,10.38,10.38,0,0,0-1.81.86l-2.57,13.31h-6.22l3.62-18.76,6.22,0-.4,2a19,19,0,0,1,3.3-1.88,8.28,8.28,0,0,1,3.31-.69c2,0,3.45.62,4.29,1.83s1,3,.57,5.27Z"/><path class="cls-3" d="M139.12,39.8a14.51,14.51,0,0,1-4.38-.59,8,8,0,0,1-3.19-1.81,6.37,6.37,0,0,1-1.71-3.07,10,10,0,0,1,0-4.36,12.88,12.88,0,0,1,1.78-4.57,11.55,11.55,0,0,1,3-3.1,12.72,12.72,0,0,1,3.83-1.74,17.76,17.76,0,0,1,4.29-.54,15.91,15.91,0,0,1,3.22.38,13.15,13.15,0,0,1,3.07,1.14l-1,5h-.78a9.27,9.27,0,0,0-.77-.77,6.46,6.46,0,0,0-1-.73,6.8,6.8,0,0,0-1.41-.62,7.22,7.22,0,0,0-1.85-.27,5.41,5.41,0,0,0-4,1.57A7.82,7.82,0,0,0,136.19,30c-.37,1.9-.18,3.33.57,4.26a4.14,4.14,0,0,0,3.41,1.4,8.08,8.08,0,0,0,2.1-.24,8.49,8.49,0,0,0,1.64-.62,7.36,7.36,0,0,0,1.19-.73c.35-.24.64-.48.91-.67h.78l-.95,5c-.39.15-.84.31-1.33.51a12.85,12.85,0,0,1-1.53.45,13.07,13.07,0,0,1-1.74.35,12.54,12.54,0,0,1-2.12.12"/><path class="cls-3" d="M169.25,30a12.06,12.06,0,0,1-4.08,7.24,11.59,11.59,0,0,1-6.19,2.5V35.54a4.48,4.48,0,0,0,.52-.16,3.73,3.73,0,0,0,1.41-.89,6.11,6.11,0,0,0,1.17-1.73,12.53,12.53,0,0,0,.81-2.79,11.26,11.26,0,0,0,.26-2.76,4.48,4.48,0,0,0-.48-1.79,2.18,2.18,0,0,0-1-1,3.5,3.5,0,0,0-1.52-.29,5.91,5.91,0,0,0-1.12.12V20.09a17.18,17.18,0,0,1,1.93-.1c3.26,0,5.59.91,7.05,2.7a7.11,7.11,0,0,1,1.54,4.54v.41a14.13,14.13,0,0,1-.25,2.33M159,39.71a16.3,16.3,0,0,1-1.91.12c-3.23,0-5.56-.9-7-2.67a7.28,7.28,0,0,1-1.55-4.57v-.38a13.79,13.79,0,0,1,.27-2.31,11.9,11.9,0,0,1,4.09-7.28A11.49,11.49,0,0,1,159,20.09v4.19a3,3,0,0,0-.43.12,3.76,3.76,0,0,0-1.4.93,5.62,5.62,0,0,0-1.21,1.76,12,12,0,0,0-.86,2.86,10.27,10.27,0,0,0-.25,2.78,4.4,4.4,0,0,0,.47,1.69,2.21,2.21,0,0,0,1,1,4.41,4.41,0,0,0,1.59.3,3.89,3.89,0,0,0,1-.14Z"/><path class="cls-3" d="M189.78,15.37l6.43,0,4,24.13h-6.55L193,34.64h-3.24V30.22h2.66l-1.11-8.14-1.55,3ZM175.9,39.52l13.33-24.15h.55v9.72l-2.67,5.1,2.67,0v4.42l-4.93,0-2.57,4.9Z"/><polygon class="cls-3" points="224.46 15.46 211.01 39.52 204.3 39.52 200.16 15.39 206.83 15.41 209.23 31.77 217.96 15.44 224.46 15.46"/><polygon class="cls-3" points="252.87 15.46 239.42 39.52 232.72 39.52 228.57 15.39 235.22 15.41 237.65 31.77 246.36 15.44 252.87 15.46"/><path class="cls-3" d="M249.91,39.52l3.49-18.16,6,0L256,39.52Zm10.15-20.73-6.34,0,.86-4.42,6.34,0Z"/><polygon class="cls-3" points="259.81 39.52 264.66 14.39 270.68 14.42 265.85 39.52 259.81 39.52"/><polygon class="cls-3" points="275.74 39.52 269.71 39.52 274.55 14.42 280.58 14.44 275.74 39.52"/><path class="cls-3" d="M290.53,37.6l-1.27.86a4.67,4.67,0,0,1-.74.44V36a8.76,8.76,0,0,0,.9-.25,6.39,6.39,0,0,0,1.64-1l.74-3.8-2.5.26c-.25,0-.5.07-.78.11V27.91c1.27-.14,2.59-.26,4-.33l0-.09a1.85,1.85,0,0,0-.76-2.15,7.37,7.37,0,0,0-3.24-.61V20.85c.6-.05,1.18-.07,1.76-.07,3.31,0,5.61.55,6.94,1.6S299,25,298.56,27.17l-2.38,12.37-6,0Zm-2,1.3c-.21.11-.47.23-.72.34a8,8,0,0,1-1.67.56,9.67,9.67,0,0,1-2.26.21A4.84,4.84,0,0,1,280,38.36a4.6,4.6,0,0,1-.88-4.07A6.69,6.69,0,0,1,280.56,31a7.57,7.57,0,0,1,2.84-2,16.33,16.33,0,0,1,4.17-1l.95-.11v3.44a7.36,7.36,0,0,0-1.13.31,3.21,3.21,0,0,0-1.37.76,2.61,2.61,0,0,0-.69,1.41c-.17.85-.05,1.43.37,1.76a3.46,3.46,0,0,0,2.05.48,4,4,0,0,0,.77-.07Zm0-14.17h-.14a10.22,10.22,0,0,0-2.55.38,19.33,19.33,0,0,0-2.94.95l-.53,0,.86-4.37c.63-.14,1.62-.35,3-.55.79-.12,1.55-.21,2.32-.26Z"/><path class="cls-3" d="M305.69,39.8a16.94,16.94,0,0,1-4-.46,12.25,12.25,0,0,1-2.92-1l.93-4.77h.49c.22.21.53.44.83.7a7.37,7.37,0,0,0,1.37.78,9.86,9.86,0,0,0,1.75.65,8.58,8.58,0,0,0,2.24.28,6.67,6.67,0,0,0,2.29-.37,1.71,1.71,0,0,0,1.21-1.2,1,1,0,0,0-.28-1,4.21,4.21,0,0,0-1.6-.62c-.44-.12-1-.23-1.64-.35s-1.25-.28-1.76-.44a5.45,5.45,0,0,1-3-2,4.49,4.49,0,0,1-.47-3.45,5.55,5.55,0,0,1,1-2.29,8.62,8.62,0,0,1,2.12-1.92,11.6,11.6,0,0,1,3.08-1.29,14.69,14.69,0,0,1,3.91-.49A18.15,18.15,0,0,1,315,21a13,13,0,0,1,2.69.95l-.88,4.61h-.49a7.8,7.8,0,0,0-.85-.63c-.4-.25-.79-.48-1.16-.67a7.51,7.51,0,0,0-1.58-.55,8.18,8.18,0,0,0-1.87-.21,5.23,5.23,0,0,0-2.27.42A1.67,1.67,0,0,0,307.44,26a1,1,0,0,0,.26,1,4.15,4.15,0,0,0,1.78.72c.48.12,1.06.23,1.71.35a13.6,13.6,0,0,1,1.83.46,5.16,5.16,0,0,1,2.75,1.87,4.34,4.34,0,0,1,.44,3.27,6,6,0,0,1-1.11,2.45A7.48,7.48,0,0,1,312.93,38a11.7,11.7,0,0,1-3.15,1.32,15.78,15.78,0,0,1-4.09.46"/></g></g></svg>