<svg xmlns="http://www.w3.org/2000/svg" xmlns:xlink="http://www.w3.org/1999/xlink" viewBox="0 0 321.13 59.81"><defs><style>.cls-1{fill:#243571;}.cls-2{fill:url(#linear-gradient);}.cls-3{fill:#f2cb12;}.cls-4{fill:url(#medio_1);}.cls-5{fill:url(#amarillos_1);}.cls-6{fill:url(#linear-gradient-2);}</style><linearGradient id="linear-gradient" x1="285.02" y1="27.42" x2="312.57" y2="34.1" gradientUnits="userSpaceOnUse"><stop offset="0.13" stop-color="#c20d19"/><stop offset="0.2" stop-color="#c51a25"/><stop offset="0.33" stop-color="#ce3d46"/><stop offset="0.51" stop-color="#dc757c"/><stop offset="0.73" stop-color="#f0c2c5"/><stop offset="0.89" stop-color="#fff"/></linearGradient><linearGradient id="medio_1" x1="277.91" y1="4.12" x2="304.48" y2="4.12" gradientUnits="userSpaceOnUse"><stop offset="0" stop-color="#c20d19"/><stop offset="1" stop-color="#f2cb12"/></linearGradient><linearGradient id="amarillos_1" x1="299.46" y1="17.83" x2="299.46" y2="27.29" gradientUnits="userSpaceOnUse"><stop offset="0" stop-color="#d19918"/><stop offset="0.11" stop-color="#d8a317"/><stop offset="0.43" stop-color="#e6b914"/><stop offset="0.73" stop-color="#efc613"/><stop offset="1" stop-color="#f2cb12"/></linearGradient><linearGradient id="linear-gradient-2" x1="300.04" y1="33.32" x2="305.75" y2="45.87" gradientUnits="userSpaceOnUse"><stop offset="0" stop-color="#d19918"/><stop offset="0.09" stop-color="#d8a317"/><stop offset="0.35" stop-color="#e6b914"/><stop offset="0.6" stop-color="#efc613"/><stop offset="0.82" stop-color="#f2cb12"/><stop offset="1" stop-color="#f2cb12"/></linearGradient></defs><g id="Capa_2" data-name="Capa 2"><g id="Capa_1-2" data-name="Capa 1"><path class="cls-1" d="M71.25,32.36a15.86,15.86,0,0,1-4.32.74c-3.28,0-4-2.89-4-5.31,0-3.74,1.36-5.63,4-5.63a6.61,6.61,0,0,1,2.23.33l2.36.94,0-.75V20.33l-.32-.14A14.32,14.32,0,0,0,66.07,19c-4.81,0-7.93,3.45-7.93,8.78,0,5.08,3,8.5,7.48,8.5A15.49,15.49,0,0,0,72,34.73l.42-.19-.69-2.32Z"/><path class="cls-1" d="M15.47,23.74c2.1-.87,3.11-2.44,3.11-5a5.21,5.21,0,0,0-3.2-5.16c-1.42-.59-2.75-.73-6.8-.73H0v2.45l2.7.4V36H9.52c3.34,0,4.75-.2,6.27-.9a6.07,6.07,0,0,0,3.62-5.71C19.41,26.39,18.07,24.57,15.47,23.74Zm-8-7.87H8.84c1.78,0,3.17,0,4,.73a2.94,2.94,0,0,1,.9,2.3c0,2.3-.71,3.21-3.42,3.48l-1.94.2-.9,1.5ZM13,32.12c-1.08.81-2.68.88-4.67.88H7.51V25.4l.12,0H9.2c1.74,0,3.14.06,4,.77a3.63,3.63,0,0,1,1.16,2.86A3.73,3.73,0,0,1,13,32.12Z"/><path class="cls-1" d="M150.87,23.74c2.11-.87,3.11-2.44,3.11-5a5.22,5.22,0,0,0-3.19-5.16c-1.43-.59-2.76-.73-6.81-.73H135.4v2.45l2.7.4V36h6.82c3.34,0,4.75-.2,6.27-.9a6.07,6.07,0,0,0,3.62-5.71C154.81,26.39,153.47,24.57,150.87,23.74Zm-8-7.87h1.33c1.77,0,3.17,0,4,.73a2.94,2.94,0,0,1,.9,2.3c0,2.3-.71,3.21-3.42,3.48l-1.94.2-.89,1.5Zm5.52,16.25c-1.08.81-2.68.88-4.67.88h-.85V25.4l.11,0h1.58c1.73,0,3.13.06,4,.77a3.59,3.59,0,0,1,1.16,2.86A3.73,3.73,0,0,1,148.44,32.12Z"/><path class="cls-1" d="M51.31,19a14.55,14.55,0,0,0-5.23,1.34c0-.38-.1-1.31-.1-1.31L39,20v2.44h2.56V36h4.56s0-12,0-12.7a11.5,11.5,0,0,1,3.53-.67,2,2,0,0,1,1.51.43c.44.44.44,1.31.43,2.32V36h4.61V25.12c0-2.51-.11-3.34-.91-4.37A4.8,4.8,0,0,0,51.31,19Z"/><path class="cls-1" d="M81.39,19c-5.12,0-8.3,3.31-8.3,8.66s3.1,8.62,8.3,8.62,8.28-3.32,8.28-8.66S86.57,19,81.39,19Zm0,14.29c-1.48,0-3.45-.58-3.45-5.63s1.76-5.64,3.48-5.64c1.49,0,3.46.58,3.46,5.6S83.09,33.33,81.36,33.33Z"/><path class="cls-1" d="M201.37,19c-5.13,0-8.3,3.31-8.3,8.66s3.1,8.62,8.3,8.62,8.27-3.32,8.27-8.66S206.55,19,201.37,19Zm0,14.29c-1.48,0-3.45-.58-3.45-5.63s1.76-5.64,3.49-5.64c1.48,0,3.46.58,3.46,5.6S203.06,33.33,201.33,33.33Z"/><path class="cls-1" d="M220.64,32.81l-3.23.49c-.72,0-.91-.19-1-.37s-.12-.27-.12-1.56c0-.14,0-8.07,0-9h4.56V19.56h-4.56V15.17l-.57.05-4,.34V31.28c0,1.75.14,2.86.89,3.74a4,4,0,0,0,3.37,1.26,13.61,13.61,0,0,0,5-1.09l.45-.18Z"/><path class="cls-1" d="M165.34,19c-5.12,0-8.3,3.31-8.3,8.66s3.11,8.62,8.3,8.62,8.27-3.32,8.27-8.66S170.52,19,165.34,19Zm0,14.29c-1.48,0-3.45-.58-3.45-5.63s1.76-5.64,3.48-5.64c1.49,0,3.46.58,3.46,5.6S167,33.33,165.31,33.33Z"/><path class="cls-1" d="M186.6,20.37a7.33,7.33,0,0,0-3.58-.91c-4.58,0-7.85,3.65-7.85,8.77,0,4.91,2.59,8,6.72,8,1.07,0,2.1-.28,4.59-1.29v1.32c0,2.86-1,3.68-4.62,3.68a25.72,25.72,0,0,1-5.5-.66V42a28.79,28.79,0,0,0,6.6,1,11.85,11.85,0,0,0,5.49-1.1c2-1.07,2.74-2.58,2.74-5.47V19.67H186.6Zm-.12,12.29a12.71,12.71,0,0,1-2.13.2c-2.78,0-4.3-1.8-4.3-5.1s1.71-5.41,4.71-5.41a8.91,8.91,0,0,1,1.72.16Z"/><path class="cls-1" d="M36.71,19.78H32.22v.69a7.16,7.16,0,0,0-3.5-.91c-4.5,0-7.69,3.64-7.69,8.74,0,4.89,2.53,8,6.58,8,1,0,2.4-.47,4.49-1.67V36l.08,0a.84.84,0,0,0,0,.12l6.38-.64V32.73H36.71Zm-4.48,13a13.09,13.09,0,0,1-2.18.2c-2.83,0-4.38-1.82-4.38-5.15s1.75-5.47,4.82-5.47a8.41,8.41,0,0,1,1.74.16Z"/><path class="cls-1" d="M237.64,19.78h-4.49v.69a7.19,7.19,0,0,0-3.5-.91c-4.5,0-7.69,3.64-7.69,8.74,0,4.89,2.52,8,6.57,8,1.05,0,2.4-.47,4.49-1.67V36l.09,0v.12l6.39-.64V32.73h-1.86Zm-4.48,13A13.28,13.28,0,0,1,231,33c-2.83,0-4.39-1.82-4.39-5.15s1.75-5.47,4.82-5.47a8.45,8.45,0,0,1,1.75.16Z"/><polygon class="cls-1" points="235.54 15.63 234.45 12.14 233.97 12.33 226.8 15.24 227.43 17.32 235.54 15.63"/><path class="cls-1" d="M111.7,11.8l-.23,0-.55.07-6.06.77v2.05h2.23V20a10.63,10.63,0,0,0-6.63-.35c-3.18,1.06-5,3.93-5.06,8.08-.09,3.75,1.85,6.84,4.94,7.86,2.27.74,5.29-.1,7-.89,0,.32,0,1.35,0,1.35l.79-.07,5.33-.74V33.23h-2C111.51,32.81,111.7,11.8,111.7,11.8Zm-4.6,20.86c-2.07.55-4.36,1-5.84-.82a6.48,6.48,0,0,1-1-4.17c0-.18,0-.37,0-.55a5.51,5.51,0,0,1,1.39-3.86c1.42-1.59,3.83-1.27,5.59-.45C107.21,22.81,107.1,32.33,107.1,32.66Z"/><path class="cls-1" d="M122.66,19.06a8.4,8.4,0,0,0-2.94.39c-3.38,1.1-5.28,4.06-5.38,8.33-.09,3.87,2,7,5.25,8.09,2.91.93,7.16-.08,9.85-1.54l.14-.08-.76-2.34-1.51.47c-2.18.61-5,1.72-6.79-.37a6.53,6.53,0,0,1-1.11-4.19l8.92.18h1.34v-.19a11.56,11.56,0,0,0,.06-1.16C129.74,18.89,123,19.07,122.66,19.06Zm-3.14,6.47c0-.29.17-3.64,3.15-3.64s3.08,3.27,3.12,3.64Z"/><path class="cls-2" d="M290.77,0c-16.23.28-29.64,11.6-30.23,27.17A28.21,28.21,0,0,0,308.2,48.64c5.12-4.89,4.91-13.49.83-9.59a24.08,24.08,0,0,1-17.58,6.6c-13-.46-23.19-11-22.7-23.49.45-11.6,12-20.79,22.26-21.34l.27-.82Z"/><path class="cls-3" d="M293,.82c13.09.8,23.87,12-14.23,23.09a54.28,54.28,0,0,1,16.87,6.45C328.29,13.78,309.73-.06,291.28,0L291,.82A17,17,0,0,1,293,.82Z"/><path class="cls-4" d="M277,6.65A24.71,24.71,0,0,1,291,.82a17,17,0,0,1,2,0c6.42.39,12.28,3.27,12.1,7.42l3.2-3.78C304.05,1.62,297.66,0,291.28,0h-.52a33.4,33.4,0,0,0-16.35,4.51Z"/><path class="cls-5" d="M307,44c0-.14-.55-3.83-.55-3.83-1.31-8.76.53-17.26,13.93-17.95-19.43-9.34-32.35-.39-41.82,1.7C287.16,25,305.33,34.72,307,44Z"/><path class="cls-6" d="M313.44,24.79c-8.28,3.41-7.43,12.86-6.64,18.4a10.5,10.5,0,0,1-.92,7.5c-2.38,4.05-6.23,7.1-13.66,9.09C311.25,60.65,333,42.37,313.44,24.79Z"/></g></g></svg>