<?xml version="1.0" encoding="utf-8"?>
<!-- Generator: Adobe Illustrator 26.5.0, SVG Export Plug-In . SVG Version: 6.00 Build 0)  -->
<svg version="1.1" id="Capa_1" xmlns="http://www.w3.org/2000/svg" xmlns:xlink="http://www.w3.org/1999/xlink" x="0px" y="0px"
	 viewBox="0 0 39.08 22.75" style="enable-background:new 0 0 39.08 22.75;" xml:space="preserve">
<style type="text/css">
	.st0{fill-rule:evenodd;clip-rule:evenodd;fill:#E1212B;}
	.st1{fill:#0A4F9D;}
</style>
<g id="Capa_2_00000152242048544038004500000014851977366548506284_">
	<g id="Capa_1-2">
		<path class="st0" d="M35,5.94c-4.41-6.3-13.09-7.83-19.39-3.42c-1.33,0.93-2.49,2.09-3.42,3.42L12,6.13h3.3l0,0
			c4.25-4.53,11.37-4.75,15.9-0.5c0.17,0.16,0.34,0.33,0.5,0.5l0,0H35V5.94z"/>
		<path class="st1" d="M10.71,18.32l-0.07,0.06C9.78,19.36,8.56,19.95,7.25,20c-2.37,0.04-4.32-1.84-4.37-4.21
			c0-0.1,0-0.2,0.01-0.31c-0.12-2.37,1.7-4.38,4.06-4.5c0.1-0.01,0.2-0.01,0.3-0.01c1.3,0.04,2.53,0.62,3.39,1.59l0.07,0.06l1.62-2
			l0,0c-1.2-1.54-3.05-2.42-5-2.38C5.44,8.2,3.61,8.88,2.19,10.13C0.74,11.51-0.06,13.45,0,15.45c-0.07,2.02,0.73,3.98,2.19,5.38
			c1.41,1.26,3.25,1.93,5.14,1.89c1.95,0.04,3.8-0.84,5-2.38v-0.05l-1.62-2V18.32z M14,22.45h2.87v-14H14V22.45z M28.1,19.4
			c-0.63,0.42-1.36,0.67-2.12,0.7c-0.92,0-1.34-0.49-1.34-1.58v-7.44h2.92V8.43h-2.95V4.07L21.8,5.58v2.85h-2.43v2.65h2.43V19
			c0,2.16,1.27,3.63,3.18,3.67c0.89,0.04,1.78-0.2,2.54-0.67l0,0l0.69-2.71l-0.17,0.11H28.1z M30.48,22.45h2.86v-14h-2.89v14H30.48z
			 M37.98,6c0,0.16-0.11,0.23-0.26,0.23h-0.43V5.76h0.43c0.13-0.02,0.24,0.07,0.26,0.2C37.98,5.97,37.98,5.98,37.98,6z M38.31,5.99
			c0.01-0.27-0.25-0.49-0.52-0.49c-0.02,0-0.04,0-0.06,0h-0.72v1.63h0.28V6.5h0.36l0.32,0.63h0.33l-0.34-0.66
			C38.17,6.41,38.32,6.21,38.31,5.99L38.31,5.99z M39.08,6.35c-0.01-0.83-0.68-1.5-1.51-1.49c-0.83,0.01-1.5,0.68-1.49,1.51
			c0.01,0.82,0.68,1.49,1.5,1.49c0.81,0.02,1.48-0.63,1.5-1.44C39.08,6.4,39.08,6.37,39.08,6.35z M38.84,6.35
			c0,0.7-0.56,1.26-1.26,1.26c-0.7,0-1.26-0.56-1.26-1.26c0-0.7,0.56-1.26,1.26-1.26c0.68-0.01,1.25,0.53,1.26,1.22
			C38.84,6.32,38.84,6.33,38.84,6.35z"/>
	</g>
</g>
</svg>
