<?xml version="1.0" encoding="utf-8"?>
<!-- Generator: Adobe Illustrator 26.5.0, SVG Export Plug-In . SVG Version: 6.00 Build 0)  -->
<svg version="1.1" id="Capa_1" xmlns="http://www.w3.org/2000/svg" xmlns:xlink="http://www.w3.org/1999/xlink" x="0px" y="0px"
	 viewBox="0 0 525.17 107.04" style="enable-background:new 0 0 525.17 107.04;" xml:space="preserve">
<style type="text/css">
	.st0{fill:#007A38;}
	.st1{fill:#C0D100;}
	.st2{fill:#134734;}
	.st3{fill:#54595B;}
	.st4{fill:#9EA2A2;}
</style>
<g>
	<g>
		<path class="st0" d="M69.61,107.04C51.74,107.04,0,92.6,0,74.75c0-17.85,51.74-32.28,69.61-32.28s32.33,14.44,32.33,32.28
			C101.94,92.6,87.48,107.04,69.61,107.04"/>
		<path class="st1" d="M53.39,52.56c-11.38-6.92-38.81-36.2-31.9-47.58c6.92-11.38,45.56-0.61,56.94,6.36
			c11.38,6.92,15.06,21.76,8.09,33.14C79.6,55.85,64.76,59.47,53.39,52.56"/>
		<path class="st2" d="M42.47,47.24c3.66,3.66,7.09,6.72,9.68,8.36c11.14,7.39,25.54,3.85,32.8-7.75
			C80,44.49,74.2,42.47,67.96,42.47C62.16,42.54,52.6,44.24,42.47,47.24"/>
	</g>
	<g>
		<path class="st3" d="M151.91,51.12c1.2,0.45,2.24,1.08,3.15,1.87c0.92,0.79,1.61,1.64,2.18,2.61c0.57,0.96,0.97,1.98,1.26,3.12
			c0.29,1.08,0.4,2.21,0.4,3.34c0,1.98-0.4,3.8-1.2,5.44c-0.8,1.64-1.84,3.06-3.21,4.25c-1.32,1.19-2.92,2.1-4.76,2.72
			c-1.84,0.62-3.79,0.96-5.85,0.96h-15.6c-1.38,0-2.29-0.28-2.81-0.85c-0.52-0.57-0.75-1.47-0.75-2.78V34.68
			c0-1.25,0.23-2.15,0.75-2.72s1.43-0.91,2.81-0.91L143.13,31c1.95,0,3.79,0.23,5.51,0.62c1.72,0.4,3.15,1.08,4.36,1.98
			c1.2,0.91,2.18,2.04,2.87,3.4c0.69,1.36,1.03,3.06,1.03,4.99c0,1.87-0.46,3.63-1.43,5.16c-0.98,1.53-2.18,2.72-3.61,3.51v0.45
			H151.91z M132.52,48.23h10.38c0.57,0,1.26-0.06,1.95-0.23c0.69-0.17,1.38-0.4,1.95-0.79c0.57-0.4,1.09-0.96,1.49-1.64
			c0.4-0.68,0.57-1.59,0.57-2.78c0-1.53-0.52-2.72-1.49-3.63c-0.98-0.91-2.35-1.3-4.07-1.3h-10.73v10.37H132.52z M150.82,61.55
			c0-2.04-0.63-3.68-1.95-4.99c-1.32-1.3-3.21-1.93-5.74-1.93h-10.61v13.77h10.55c1.55,0,2.81-0.23,3.79-0.68
			c0.98-0.45,1.78-1.02,2.35-1.64c0.57-0.68,1.03-1.42,1.26-2.27C150.7,63.02,150.82,62.23,150.82,61.55z"/>
		<path class="st3" d="M187.9,71.17c0,1.01-0.41,1.68-1.22,2.08c-0.93,0.39-1.98,0.79-3.08,1.07c-1.1,0.28-2.21,0.51-3.43,0.67
			c-1.16,0.17-2.32,0.28-3.49,0.34c-1.16,0.06-2.21,0.11-3.25,0.11c-2.85,0-5.23-0.28-7.09-0.84c-1.86-0.56-3.37-1.29-4.47-2.25
			c-1.1-0.95-1.86-2.02-2.32-3.31c-0.41-1.29-0.64-2.64-0.64-4.04c0-1.46,0.23-2.86,0.76-4.21s1.28-2.53,2.44-3.59
			c1.1-1.01,2.56-1.85,4.36-2.47c1.8-0.62,4.01-0.95,6.57-0.95h7.26V52.7c0-0.79-0.12-1.52-0.23-2.19
			c-0.17-0.67-0.52-1.23-0.99-1.74c-0.52-0.51-1.16-0.9-2.03-1.18c-0.87-0.28-1.98-0.39-3.37-0.39c-1.45,0-3.08,0.11-4.77,0.39
			c-1.74,0.22-3.14,0.56-4.18,0.9c-0.46,0.11-0.81,0.17-1.05,0.06c-0.23-0.11-0.35-0.34-0.46-0.67l-0.93-3.54
			c-0.17-0.67,0-1.12,0.58-1.29c1.8-0.67,3.78-1.12,5.99-1.4c2.15-0.28,4.18-0.39,6.1-0.39c4.47,0,7.79,0.95,9.88,2.86
			c2.09,1.91,3.14,4.72,3.14,8.36v18.69H187.9z M180.23,59.38h-6.22c-0.76,0-1.51,0.06-2.38,0.11c-0.81,0.06-1.63,0.34-2.38,0.67
			c-0.76,0.39-1.39,0.9-1.86,1.63c-0.52,0.73-0.76,1.68-0.76,2.92c0,1.8,0.64,3.03,1.86,3.76c1.28,0.73,2.91,1.07,5,1.07
			c0.29,0,0.7,0,1.28-0.06c0.52,0,1.1-0.06,1.74-0.17c0.58-0.11,1.22-0.17,1.92-0.34c0.7-0.11,1.28-0.28,1.86-0.51v-9.09H180.23z"/>
		<path class="st3" d="M205.6,47.46c-0.46,0-1.15,0-2.02,0.06c-0.86,0-1.9,0.11-3.06,0.34v26.32c0,0.46-0.06,0.74-0.23,0.91
			c-0.17,0.11-0.52,0.17-0.98,0.17h-5.02c-0.4,0-0.75-0.06-0.92-0.17c-0.17-0.11-0.29-0.4-0.29-0.91V47.01
			c0-1.54,0.29-2.73,0.81-3.53c0.58-0.85,1.73-1.42,3.46-1.71c0.4-0.06,0.98-0.11,1.73-0.17c0.75-0.06,1.5-0.17,2.31-0.17
			c0.81-0.06,1.61-0.06,2.36-0.11c0.75-0.06,1.44-0.06,1.96-0.06c2.82,0,5.3,0.28,7.32,0.91c2.08,0.57,3.81,1.54,5.13,2.85
			s2.36,2.96,3,5.07c0.63,2.05,0.98,4.56,0.98,7.52v16.75c0,0.46-0.06,0.74-0.23,0.91c-0.17,0.11-0.46,0.17-0.98,0.17h-5.02
			c-0.4,0-0.75-0.06-0.92-0.17c-0.17-0.11-0.29-0.4-0.29-0.91V57.43c0-1.65-0.17-3.08-0.4-4.33c-0.29-1.25-0.75-2.22-1.44-3.02
			c-0.69-0.8-1.61-1.42-2.77-1.82C208.88,47.69,207.39,47.46,205.6,47.46"/>
		<path class="st3" d="M240.23,69.06c1.41,0,2.82-0.17,4.17-0.5c1.41-0.34,2.52-0.73,3.46-1.12c0.47-0.22,0.82-0.28,1-0.17
			c0.18,0.11,0.35,0.28,0.47,0.62l1.64,3.64c0.41,0.67,0.29,1.17-0.41,1.57c-1.76,0.95-3.7,1.57-5.81,1.9
			c-2.05,0.34-3.99,0.45-5.81,0.45c-4.87,0-8.63-1.4-11.21-4.25s-3.87-7.05-3.87-12.59c0-2.63,0.35-4.98,1.12-7.16
			c0.76-2.13,1.82-3.97,3.17-5.48c1.35-1.51,3.05-2.69,4.99-3.47c1.94-0.84,4.11-1.23,6.57-1.23c1.76,0,3.52,0.17,5.22,0.5
			c1.7,0.34,3.29,0.9,4.75,1.68c0.41,0.22,0.65,0.39,0.7,0.62c0.06,0.22,0,0.5-0.18,0.95l-1.64,3.69c-0.18,0.34-0.35,0.56-0.53,0.62
			c-0.18,0.11-0.53,0-1.06-0.17c-1.06-0.39-2.11-0.67-3.29-0.95c-1.12-0.28-2.35-0.39-3.58-0.39c-1.47,0-2.76,0.28-3.81,0.89
			s-1.94,1.4-2.64,2.41c-0.7,1.01-1.17,2.13-1.47,3.47c-0.29,1.29-0.47,2.69-0.47,4.08c0,1.45,0.12,2.8,0.41,4.08
			c0.23,1.29,0.7,2.41,1.35,3.36c0.65,0.95,1.47,1.68,2.58,2.24C237.12,68.84,238.52,69.06,240.23,69.06"/>
		<path class="st3" d="M281.97,58.23c0,5.53-1.31,9.77-3.92,12.74c-2.62,2.96-6.48,4.47-11.66,4.47c-5.12,0-8.93-1.45-11.43-4.36
			c-2.5-2.9-3.75-7.09-3.75-12.68c0-2.74,0.4-5.19,1.14-7.26c0.74-2.12,1.82-3.91,3.18-5.36c1.36-1.45,2.96-2.57,4.83-3.35
			c1.88-0.78,3.98-1.17,6.26-1.17c5,0,8.81,1.51,11.43,4.52C280.66,48.85,281.97,52.98,281.97,58.23 M274.4,58.46
			c0-1.51-0.11-2.9-0.34-4.24c-0.23-1.34-0.63-2.51-1.19-3.52c-0.57-1.01-1.37-1.84-2.33-2.4c-0.97-0.56-2.27-0.89-3.75-0.89
			c-1.36,0-2.56,0.28-3.53,0.84c-1.02,0.56-1.88,1.34-2.56,2.29c-0.68,0.95-1.19,2.12-1.48,3.46c-0.34,1.34-0.45,2.79-0.45,4.3
			c0,3.46,0.57,6.2,1.71,8.15c1.14,1.95,3.18,2.96,6.09,2.96c1.48,0,2.73-0.33,3.75-0.89c1.02-0.61,1.82-1.4,2.45-2.4
			c0.63-1.01,1.08-2.18,1.31-3.46C274.29,61.31,274.4,59.91,274.4,58.46"/>
	</g>
	<g>
		<path class="st4" d="M349.27,71.56c0,1-0.4,1.66-1.27,2.05c-0.92,0.39-1.96,0.78-3.05,1.05c-1.15,0.28-2.25,0.5-3.4,0.67
			c-1.15,0.17-2.3,0.28-3.45,0.33c-1.15,0.06-2.25,0.11-3.28,0.11c-2.88,0-5.24-0.28-7.08-0.83c-1.9-0.55-3.4-1.33-4.49-2.22
			c-1.09-0.94-1.84-2.05-2.3-3.33c-0.4-1.27-0.63-2.61-0.63-3.99c0-1.5,0.29-2.88,0.75-4.21c0.46-1.33,1.27-2.55,2.42-3.55
			c1.15-1,2.59-1.83,4.38-2.44c1.78-0.61,3.97-0.94,6.56-0.94h7.26v-1.05c0-0.78-0.12-1.5-0.23-2.22c-0.17-0.67-0.52-1.22-0.98-1.72
			c-0.52-0.5-1.15-0.89-2.02-1.11c-0.92-0.28-2.02-0.44-3.4-0.44c-1.5,0-3.05,0.11-4.78,0.39c-1.73,0.22-3.11,0.5-4.2,0.83
			c-0.46,0.11-0.81,0.11-1.04,0.06c-0.23-0.06-0.35-0.33-0.46-0.72l-0.92-3.55c-0.17-0.66,0-1.11,0.58-1.27
			c1.78-0.67,3.8-1.11,5.93-1.44c2.13-0.28,4.2-0.39,6.1-0.39c4.49,0,7.77,0.94,9.9,2.88c2.07,1.94,3.17,4.71,3.17,8.37v18.68
			H349.27z M341.67,59.75h-6.22c-0.75,0-1.5,0.06-2.36,0.11c-0.86,0.06-1.67,0.33-2.42,0.66c-0.75,0.39-1.38,0.89-1.9,1.61
			c-0.46,0.72-0.75,1.72-0.75,2.94c0,1.77,0.63,3.05,1.9,3.77c1.27,0.72,2.94,1.05,5.01,1.05c0.29,0,0.75,0,1.27-0.06
			c0.52,0,1.15-0.06,1.73-0.17c0.63-0.06,1.21-0.17,1.9-0.33c0.69-0.11,1.32-0.28,1.84-0.5V59.75z"/>
		<path class="st4" d="M397.13,71.56c0,1-0.4,1.66-1.27,2.05c-0.92,0.39-1.96,0.78-3.05,1.05c-1.09,0.28-2.25,0.5-3.4,0.67
			c-1.15,0.17-2.3,0.28-3.45,0.33c-1.15,0.06-2.25,0.11-3.28,0.11c-2.88,0-5.24-0.28-7.08-0.83c-1.9-0.55-3.4-1.33-4.49-2.22
			c-1.09-0.94-1.84-2.05-2.3-3.33c-0.46-1.27-0.69-2.61-0.69-3.99c0-1.5,0.29-2.88,0.75-4.21c0.52-1.33,1.27-2.55,2.42-3.55
			c1.15-1,2.59-1.83,4.38-2.44c1.78-0.61,3.97-0.94,6.56-0.94h7.26v-1.05c0-0.78-0.06-1.5-0.29-2.22c-0.17-0.67-0.52-1.22-0.98-1.72
			c-0.52-0.5-1.21-0.89-2.07-1.11c-0.86-0.28-2.02-0.44-3.34-0.44c-1.5,0-3.05,0.11-4.78,0.39c-1.73,0.22-3.11,0.5-4.2,0.83
			c-0.46,0.11-0.81,0.11-1.04,0.06c-0.23-0.06-0.4-0.33-0.46-0.72l-0.92-3.55c-0.17-0.66,0-1.11,0.58-1.27
			c1.84-0.67,3.8-1.11,5.99-1.44c2.19-0.28,4.2-0.39,6.1-0.39c4.49,0,7.77,0.94,9.85,2.88c2.07,1.94,3.17,4.71,3.17,8.37v18.68
			H397.13z M389.47,59.75h-6.22c-0.75,0-1.55,0.06-2.36,0.11c-0.86,0.06-1.61,0.33-2.42,0.66c-0.75,0.39-1.38,0.89-1.9,1.61
			c-0.52,0.72-0.75,1.72-0.75,2.94c0,1.77,0.63,3.05,1.9,3.77c1.27,0.72,2.88,1.05,5.01,1.05c0.29,0,0.69,0,1.27-0.06
			c0.52,0,1.09-0.06,1.73-0.17c0.63-0.06,1.21-0.17,1.9-0.33c0.69-0.11,1.27-0.28,1.84-0.5V59.75z"/>
		<path class="st4" d="M448.84,41.63c5.03,0,8.78,1.22,11.24,3.66c2.4,2.44,3.63,5.82,3.63,10.09c0,1.05-0.12,2-0.41,2.72
			c-0.23,0.66-0.64,1.22-1.11,1.66c-0.47,0.44-1.05,0.72-1.7,0.89c-0.64,0.17-1.35,0.28-2.11,0.28h-17.44
			c0.06,1.66,0.29,2.99,0.76,4.1c0.47,1.11,1.17,2,1.99,2.66c0.82,0.66,1.81,1.16,2.87,1.44c1.11,0.28,2.34,0.44,3.57,0.44
			c1.4,0,2.81-0.17,4.16-0.5c1.35-0.33,2.52-0.72,3.51-1.22c0.7-0.28,1.17-0.17,1.46,0.39l1.76,3.55c0.29,0.67,0.12,1.16-0.47,1.44
			c-1.7,0.94-3.45,1.61-5.5,2c-1.99,0.39-3.86,0.55-5.68,0.55c-5.33,0-9.37-1.33-12.18-4.05c-2.81-2.66-4.21-6.98-4.21-12.8
			c0-2.77,0.41-5.21,1.17-7.32c0.76-2.16,1.87-3.99,3.22-5.43c1.4-1.5,3.04-2.61,4.98-3.33C444.4,42.02,446.56,41.63,448.84,41.63
			 M448.96,47.67c-1.17,0-2.22,0.22-3.16,0.66c-0.94,0.44-1.76,1.05-2.34,1.77c-0.64,0.78-1.17,1.61-1.58,2.55
			c-0.41,0.94-0.64,1.94-0.64,2.99h15.16c0-1.11-0.12-2.16-0.35-3.1c-0.23-0.94-0.59-1.77-1.17-2.49c-0.53-0.72-1.29-1.33-2.22-1.72
			C451.65,47.89,450.42,47.67,448.96,47.67"/>
		<path class="st4" d="M525.17,71.56c0,1-0.4,1.66-1.27,2.05c-0.92,0.39-1.96,0.78-3.06,1.05c-1.15,0.28-2.25,0.5-3.4,0.67
			c-1.15,0.17-2.37,0.28-3.46,0.33c-1.15,0.06-2.25,0.11-3.29,0.11c-2.83,0-5.19-0.28-7.1-0.83c-1.85-0.55-3.35-1.33-4.5-2.22
			c-1.1-0.94-1.85-2.05-2.31-3.33c-0.4-1.27-0.63-2.61-0.63-3.99c0-1.5,0.23-2.88,0.75-4.21c0.46-1.33,1.33-2.55,2.42-3.55
			c1.1-1,2.6-1.83,4.38-2.44c1.79-0.61,3.98-0.94,6.58-0.94h7.27v-1.05c0-0.78-0.06-1.5-0.29-2.22c-0.17-0.67-0.52-1.22-0.98-1.72
			c-0.52-0.5-1.15-0.89-2.02-1.11c-0.87-0.28-1.96-0.44-3.35-0.44c-1.44,0-3.06,0.11-4.85,0.39c-1.73,0.22-3.12,0.5-4.21,0.83
			c-0.46,0.11-0.81,0.11-1.04,0.06c-0.23-0.06-0.4-0.33-0.46-0.72l-0.92-3.55c-0.17-0.66,0-1.11,0.58-1.27
			c1.79-0.67,3.81-1.11,5.94-1.44c2.19-0.28,4.21-0.39,6.12-0.39c4.5,0,7.79,0.94,9.92,2.88c2.08,1.94,3.12,4.71,3.12,8.37v18.68
			H525.17z M517.5,59.75h-6.23c-0.75,0-1.5,0.06-2.37,0.11c-0.87,0.06-1.67,0.33-2.42,0.66c-0.75,0.39-1.38,0.89-1.9,1.61
			c-0.46,0.72-0.75,1.72-0.75,2.94c0,1.77,0.63,3.05,1.9,3.77c1.27,0.72,2.94,1.05,5.02,1.05c0.35,0,0.69,0,1.27-0.06
			c0.58,0,1.1-0.06,1.73-0.17c0.63-0.06,1.27-0.17,1.9-0.33c0.69-0.11,1.33-0.28,1.85-0.5V59.75z"/>
		<path class="st4" d="M321.79,31.72c-0.17-0.22-0.51-0.34-1.14-0.34h-17.98c-2.16,0-3.98,0.34-5.41,0.96
			c-1.48,0.62-2.62,1.46-3.53,2.53s-1.54,2.25-1.88,3.66c-0.34,1.35-0.57,2.76-0.57,4.28v31.62c0,0.56,0.11,0.9,0.4,1.07
			c0.28,0.17,0.63,0.28,1.08,0.28h1.99c1.37-0.11,4.27-0.79,4.27-4.89V56.31h19.18c0.57,0,0.91-0.11,1.08-0.39
			c0.17-0.22,0.23-0.62,0.23-1.07v-3.6c0-0.62-0.06-0.96-0.23-1.18c-0.11-0.17-0.46-0.34-1.08-0.34h-19.12v-7.37
			c0-1.35,0.34-2.36,1.02-3.09c0.63-0.73,1.76-1.07,3.41-1.07h17.13c0.57,0,0.91-0.11,1.08-0.34c0.17-0.17,0.28-0.56,0.28-1.12
			v-3.88C322.01,32.34,321.9,31.95,321.79,31.72"/>
		<path class="st4" d="M430.45,52.61c-0.58-2.12-1.45-3.95-2.68-5.5c-1.22-1.55-2.73-2.75-4.65-3.61c-1.92-0.92-4.13-1.32-6.75-1.32
			c-1.22,0-2.5,0.11-4.02,0.29c-1.51,0.17-2.91,0.52-4.19,0.86l-0.06-12.5c0-0.52-0.06-0.86-0.23-0.97
			c-0.17-0.17-0.52-0.17-0.99-0.17h-2.04c-1.45,0.11-4.19,0.86-4.31,4.87v39.09c0,0.4,0.06,0.69,0.17,0.97
			c0.12,0.23,0.41,0.4,0.76,0.57c1.98,0.92,4.13,1.49,6.46,1.78c2.33,0.34,4.6,0.52,6.87,0.52c2.85,0,5.35-0.46,7.45-1.32
			c2.04-0.92,3.78-2.18,5.12-3.78c1.34-1.6,2.33-3.5,2.97-5.73c0.64-2.18,0.93-4.59,0.93-7.16
			C431.32,57.02,431.03,54.73,430.45,52.61 M422.83,65.04c-0.47,1.43-1.05,2.58-1.8,3.5c-0.81,0.92-1.75,1.55-2.85,1.95
			c-1.11,0.4-2.39,0.63-3.72,0.63c-0.87,0-1.92-0.06-3.03-0.17c-1.11-0.11-2.21-0.34-3.26-0.69V49.62c1.4-0.4,2.73-0.69,4.01-0.8
			c1.28-0.17,2.27-0.23,2.97-0.23c2.62,0,4.66,0.92,6.17,2.81c1.51,1.83,2.21,4.64,2.21,8.43
			C423.47,61.89,423.24,63.67,422.83,65.04"/>
		<path class="st4" d="M479.04,75.3l-0.46-3.61c-0.06-0.34-0.11-0.57-0.29-0.69s-0.4-0.11-0.74-0.11c-0.29,0.06-0.69,0.06-1.14,0.11
			c-0.46,0.06-0.86,0.06-1.2,0.06c-0.86,0-1.43-0.17-1.72-0.63c-0.29-0.4-0.46-1.15-0.46-2.29V30.77c0-0.46-0.11-0.75-0.34-0.92
			c-0.17-0.17-0.52-0.17-0.97-0.17h-2.06c-1.43,0.11-4.12,0.86-4.23,4.7v35.59c0,2.81,0.57,4.76,1.72,5.85
			c1.14,1.15,2.86,1.66,5.26,1.66c0.86,0,1.83-0.06,2.92-0.17c1.09-0.11,2.06-0.34,2.92-0.69c0.46-0.23,0.69-0.4,0.74-0.57
			C479.1,76.05,479.1,75.76,479.04,75.3"/>
		<path class="st4" d="M496.07,75.3l-0.46-3.61c-0.06-0.34-0.11-0.57-0.29-0.69c-0.11-0.11-0.4-0.11-0.74-0.11
			c-0.29,0.06-0.69,0.06-1.15,0.11c-0.46,0.06-0.86,0.06-1.2,0.06c-0.86,0-1.43-0.17-1.78-0.63c-0.29-0.4-0.4-1.15-0.4-2.29V30.77
			c0-0.46-0.11-0.75-0.29-0.92c-0.17-0.17-0.52-0.17-0.97-0.17h-2.06c-1.43,0.11-4.24,0.86-4.24,4.93v35.36
			c0,2.81,0.57,4.76,1.66,5.85c1.09,1.15,2.86,1.66,5.27,1.66c0.86,0,1.83-0.06,2.92-0.17c1.09-0.11,2.06-0.34,2.92-0.69
			c0.46-0.23,0.69-0.4,0.74-0.57C496.18,76.05,496.18,75.76,496.07,75.3"/>
		<path class="st4" d="M366.31,75.3l-0.46-3.61c-0.06-0.34-0.17-0.57-0.29-0.69c-0.17-0.11-0.4-0.11-0.74-0.11
			c-0.29,0.06-0.69,0.06-1.15,0.11c-0.46,0.06-0.86,0.06-1.2,0.06c-0.86,0-1.43-0.17-1.72-0.63c-0.34-0.4-0.46-1.15-0.46-2.29V30.77
			c0-0.46-0.06-0.75-0.29-0.92c-0.23-0.17-0.52-0.17-0.97-0.17h-2.06c-1.43,0.11-4.24,0.86-4.24,4.99v35.31
			c0,2.81,0.57,4.76,1.66,5.85c1.09,1.15,2.86,1.66,5.27,1.66c0.86,0,1.83-0.06,2.92-0.17c1.09-0.11,2.06-0.34,2.92-0.69
			c0.46-0.23,0.69-0.4,0.8-0.57C366.43,76.05,366.43,75.76,366.31,75.3"/>
	</g>
</g>
</svg>
