<svg xmlns="http://www.w3.org/2000/svg" viewBox="0 0 92.7 92.7"><defs><style>.cls-1{fill:#01309a;}.cls-2,.cls-3{fill:#ffff01;}.cls-3{fill-rule:evenodd;}</style></defs><g id="Capa_2" data-name="Capa 2"><g id="Capa_1-2" data-name="Capa 1"><path class="cls-1" d="M15.46,0H77.25A15.46,15.46,0,0,1,92.7,15.46v61.8A15.44,15.44,0,0,1,77.25,92.7H15.46A15.44,15.44,0,0,1,0,77.26V15.46A15.46,15.46,0,0,1,15.46,0Z"/><rect class="cls-2" x="7.73" y="46.34" width="7.21" height="30.91"/><path class="cls-2" d="M47.22,53.41a19.47,19.47,0,0,0-9.5,2.19l1.35,4.56a14.72,14.72,0,0,1,7-1.87c4.21,0,5.1,2.13,5.1,3.22v.25c-9.34,0-15.11,3-15.11,9,0,3.52,2.79,7.08,7.95,7.08a9.29,9.29,0,0,0,7.23-3h.08l.79,2.4h5.86V63.55C57.93,58,55.2,53.41,47.22,53.41ZM51.34,68.7a5.23,5.23,0,0,1-.12,1.17s-.06.21-.07.24l0,.12a5,5,0,0,1-4.6,2.93c-2,0-3.35-1-3.35-3,0-2.18,1.86-3.31,4.64-3.73a16.79,16.79,0,0,1,2.12-.2c.47,0,.94,0,1.43,0Z"/><path class="cls-2" d="M77.84,54.09V67.67a4,4,0,0,1-.24,1.47,4.66,4.66,0,0,1-4.34,3C70.32,72.11,69,70,69,66.34V54.08H62V67.62a14.22,14.22,0,0,0,.66,4.63,8.77,8.77,0,0,0,1.79,3.14,6.61,6.61,0,0,0,2.72,1.81,10.24,10.24,0,0,0,3.5.58,9.76,9.76,0,0,0,2.94-.41,9.51,9.51,0,0,0,2.22-1,7.41,7.41,0,0,0,1.56-1.24,8.8,8.8,0,0,0,1-1.19l.91,3.29H85V54.09Z"/><path class="cls-2" d="M21.69,46.34v7.74H18.41v5.28h3.28v9.42c0,3.11.63,5.45,2,6.88a7.78,7.78,0,0,0,5.66,2.16,9.17,9.17,0,0,0,3.91-.68V71.76a4.34,4.34,0,0,1-1.47.2c-2.5,0-3.08-1.56-3.08-4.39V59.36h4.47V54.08H28.69V46.34Z"/><polygon class="cls-3" points="75.18 46.34 70.84 52.59 75.86 52.59 81.99 46.34 75.18 46.34"/></g></g></svg>