<svg xmlns="http://www.w3.org/2000/svg" viewBox="0 0 137.87 24.73"><defs><style>.cls-1{fill:#2b2942;}.cls-2{fill:#0282c3;}</style></defs><g id="Capa_2" data-name="Capa 2"><g id="Capa_1-2" data-name="Capa 1"><path class="cls-1" d="M53.66,15.07a13.3,13.3,0,0,1-1.79.22c-1.27.05-1.51-.44-1.51-2.16s.25-2.23,1.51-2.18c.38,0,1.19.18,1.79.23l.18-1a17.12,17.12,0,0,0-1.9-.25c-2.83-.12-3.51,1-3.51,3.2s.68,3.29,3.51,3.19a16.71,16.71,0,0,0,1.94-.22l-.22-1Z"/><path class="cls-1" d="M28.15,12.4V15h2.13c1,0,1.5-.25,1.5-1.39s-.92-1.2-1.6-1.2Zm0-3.61v2.42h2c.93,0,1.25-.36,1.25-1.32s-.31-1.1-1.39-1.1ZM30,7.58c2.06,0,3.29.79,3.29,2.31a2,2,0,0,1-.88,1.82,2,2,0,0,1,1.22,1.89c0,2-1.49,2.6-3.39,2.6h-4V7.58Z"/><path class="cls-1" d="M38.34,13.19a10.91,10.91,0,0,0-1.23.06c-.64.07-1,.37-1,1a.88.88,0,0,0,.84,1,4.55,4.55,0,0,0,1.38,0v-2Zm-3.53-2.91a14.39,14.39,0,0,1,2.68-.35c1.87,0,2.72.81,2.72,2.06v4.15a17.23,17.23,0,0,1-3.54.12c-1.54-.15-2.49-.88-2.49-2s.68-1.79,2.45-2c.77-.09,1.71-.09,1.71-.09v-.24c0-.64-.24-.93-.85-.93a15.31,15.31,0,0,0-2.48.33l-.2-1Z"/><path class="cls-1" d="M58.88,13c0-1.57-.57-2-1.47-2-1.13,0-1.51.35-1.51,2s.25,2.27,1.51,2.27,1.47-.57,1.47-2.25M57.41,9.93c2.12,0,3.38.94,3.38,3.09s-.69,3.29-3.38,3.29S54,15.3,54,13s1.12-3.07,3.43-3.07Z"/><path class="cls-1" d="M68.4,11A4,4,0,0,0,67.11,11c-.94.12-1.16.61-1.16,2.06s.19,2.17,1.58,2.25a4.53,4.53,0,0,0,.87,0V11Zm0-3.46h1.86v8.59a24.46,24.46,0,0,1-2.46.15C64.65,16.32,64,15.11,64,13c0-1.9.71-3.08,3.09-3.08a9.73,9.73,0,0,1,1.3.08V7.58Z"/><path class="cls-1" d="M75.6,12.58c0-1.24-.42-1.61-1.33-1.61S73,11.35,73,12.58ZM77.24,16a15.56,15.56,0,0,1-2.87.3C71.59,16.32,71,15,71,13.12c0-2.35,1.17-3.19,3.18-3.19,2.16,0,3.28.94,3.28,3v.71H73c.05,1.14.31,1.65,1.4,1.65A18.85,18.85,0,0,0,77,15l.21,1Z"/><path class="cls-1" d="M41.21,10.54a8.89,8.89,0,0,1,3.2-.63c2.41,0,3.23,1.09,3.23,3.08v3.2H45.77V13c0-1.53-.37-2-1.36-2a5.71,5.71,0,0,0-1.36.19v5.05H41.21V10.54Z"/><polygon class="cls-2" points="0 14.99 10.5 24.73 21 14.99 18.56 12.72 10.5 20.2 4.88 14.99 10.5 9.78 12.89 12 15.34 9.74 10.5 5.25 0 14.99 0 14.99"/><polygon class="cls-2" points="21 9.74 10.5 0 0 9.74 2.44 12 10.5 4.53 16.11 9.74 10.5 14.95 8.11 12.73 5.66 14.99 10.5 19.48 21 9.74 21 9.74"/><path class="cls-2" d="M101.2,15.07a13.3,13.3,0,0,1-1.79.22c-1.27.05-1.51-.44-1.51-2.16s.24-2.23,1.51-2.18c.38,0,1.19.18,1.79.23l.18-1a17,17,0,0,0-1.91-.25c-2.82-.12-3.5,1-3.5,3.2s.68,3.29,3.51,3.19a16.71,16.71,0,0,0,1.94-.22l-.22-1Z"/><path class="cls-2" d="M95.44,15.07a13.3,13.3,0,0,1-1.79.22c-1.27.05-1.51-.44-1.51-2.16s.25-2.23,1.51-2.18c.38,0,1.19.18,1.79.23l.18-1a17.12,17.12,0,0,0-1.9-.25c-2.83-.12-3.51,1-3.51,3.2s.69,3.29,3.51,3.19a16.71,16.71,0,0,0,1.94-.22l-.22-1Z"/><path class="cls-2" d="M85.12,15.09c2.07,0,2.43-1,2.43-3.34s-.93-3.06-2.43-3.06c-1.81,0-2.5.62-2.5,3s.41,3.37,2.5,3.37m4.35-3.34c0,3-.85,4.55-4.35,4.55S80.69,15,80.69,11.72c0-3,1.4-4.23,4.43-4.23,2.77,0,4.35,1.27,4.35,4.26"/><path class="cls-2" d="M102.29,10h1.85V16.2h-1.85V10Zm0-2.23h1.85V9.1h-1.85V7.81Z"/><path class="cls-2" d="M109.45,11a4,4,0,0,0-1.29-.09c-.93.12-1.16.61-1.16,2.06s.19,2.19,1.58,2.25h.34l.53,0V11Zm0-3.46h1.87v8.59c-1.06.08-1.72.15-2.46.15-3.15,0-3.8-1.21-3.8-3.33,0-1.9.71-3.08,3.1-3.08a9.57,9.57,0,0,1,1.29.08V7.58Z"/><path class="cls-2" d="M119.57,10.54a8.9,8.9,0,0,1,3.21-.63C125.19,9.91,126,11,126,13v3.2h-1.87V13c0-1.53-.37-2-1.36-2a5.56,5.56,0,0,0-1.36.19v5.05h-1.85V10.54Z"/><path class="cls-2" d="M129.46,8.61v1.46h1.47v1h-1.47v3.06c0,.71.06,1,.38,1a5.4,5.4,0,0,0,1.09,0l.22,1a9.11,9.11,0,0,1-1.68.16c-1.64,0-1.92-.71-1.92-2.15V11.11h-1.14v-1h1.14V8.61Z"/><path class="cls-2" d="M116.8,12.57c0-1.23-.42-1.61-1.32-1.61s-1.24.38-1.29,1.61ZM118.44,16a14.79,14.79,0,0,1-2.87.31c-2.78,0-3.34-1.35-3.34-3.21,0-2.34,1.17-3.19,3.18-3.19,2.16,0,3.29.94,3.29,3v.7h-4.51c0,1.15.32,1.66,1.4,1.66a17.78,17.78,0,0,0,2.65-.3l.2,1Z"/><path class="cls-2" d="M136,12.58c0-1.24-.42-1.61-1.33-1.61s-1.23.38-1.28,1.61ZM137.62,16a15.56,15.56,0,0,1-2.87.3c-2.78,0-3.34-1.34-3.34-3.2,0-2.35,1.17-3.19,3.18-3.19,2.16,0,3.28.94,3.28,3v.71h-4.5c0,1.14.31,1.65,1.4,1.65a18.85,18.85,0,0,0,2.64-.29l.21,1Z"/></g></g></svg>