<?xml version="1.0" encoding="utf-8"?>
<!-- Generator: Adobe Illustrator 26.5.0, SVG Export Plug-In . SVG Version: 6.00 Build 0)  -->
<svg version="1.1" id="Capa_1" xmlns="http://www.w3.org/2000/svg" xmlns:xlink="http://www.w3.org/1999/xlink" x="0px" y="0px"
	 viewBox="0 0 800 168.34" style="enable-background:new 0 0 800 168.34;" xml:space="preserve">
<style type="text/css">
	.st0{fill:#FFDE00;}
	.st1{fill:#1B2D54;}
</style>
<g id="Capa_2_00000154415087350114868250000015781052472184069566_">
	<g id="Capa_1-2">
		<path class="st0" d="M0,0.28h166.93v167.9H53.38c0,0-44.13-0.48-53.38-49.5L0,0.28z"/>
		<polygon class="st1" points="83.47,29.88 139.76,29.88 139.76,84.23 114.52,84.23 114.52,53.66 83.47,53.66 		"/>
		<path class="st1" d="M263.5,2.71c14.08,2.43,14.08,16.98,14.08,16.98c1.93,7.76-7.28,16.01-7.28,16.01
			c9.18,2.43,9.18,15.53,9.18,15.53c0.98,16.99-18.44,19.9-18.44,19.9h-38.87V2.71H263.5z M236.81,14.83v15.06h20.38
			c0,0,7.11-1.62,6.79-7.52c0,0-0.64-7.52-7.44-7.52L236.81,14.83z M236.81,41.04v17.47h19.73c0,0,9.06-1.13,9.71-9.46
			c0,0-0.33-8.01-8.41-8.01L236.81,41.04z"/>
		<path class="st1" d="M312.19,2.71h14.57l26.84,68.42h-14.89l-5.49-14.07h-26.53l-6.47,14.07h-14.56L312.19,2.71z M319.62,22.36
			l-9.68,22.89h19.41L319.62,22.36z"/>
		<path class="st1" d="M758.58,98.18h14.56L800,166.61h-14.91l-5.49-14.04h-26.53l-6.47,14.08h-14.55L758.58,98.18z M766.03,117.84
			l-9.71,22.88h19.38L766.03,117.84z"/>
		<path class="st1" d="M495.62,49.78l8.7,8.73c0,0-7.76,12.61-27.82,12.61c0,0-34.93,4.69-37.82-34.21c0,0-2.27-35.02,37.82-36.64
			c0,0,17.47-0.65,26.2,11.64l-9.71,9.06c0,0-5.1-7.6-17.7-7.6c0,0-19.66-0.32-21.12,22.4c0,0-0.97,21.52,21.6,23.21
			C475.81,58.99,489.23,59.97,495.62,49.78z"/>
		<path class="st1" d="M375.58,145.78l8.73,8.73c0,0-7.76,12.61-27.82,12.61c0,0-34.93,4.7-37.82-34.21c0,0-2.27-35.02,37.82-36.64
			c0,0,17.47-0.64,26.2,11.65l-9.71,9.07c0,0-5.09-7.61-17.7-7.61c0,0-19.66-0.32-21.11,22.41c0,0-0.98,21.51,21.59,23.21
			C355.77,155,369.19,155.97,375.58,145.78z"/>
		<path class="st1" d="M638.81,145.78l8.73,8.73c0,0-7.76,12.61-27.82,12.61c0,0-34.95,4.7-37.82-34.21c0,0-2.26-35.02,37.82-36.64
			c0,0,17.47-0.64,26.2,11.65l-9.71,9.06c0,0-5.1-7.61-17.71-7.61c0,0-19.65-0.32-21.11,22.41c0,0-0.97,21.51,21.6,23.21
			C618.97,155,632.4,155.97,638.81,145.78z"/>
		<path class="st1" d="M548.12,59.09c-12.6,0-22.81-10.21-22.81-22.81s10.21-22.81,22.81-22.81c12.6,0,22.81,10.21,22.81,22.81v0.01
			C570.92,48.89,560.72,59.09,548.12,59.09z M584.53,36.29c0-20.11-16.3-36.41-36.41-36.41c-20.11,0-36.41,16.3-36.41,36.41
			s16.3,36.41,36.41,36.41C568.23,72.69,584.53,56.4,584.53,36.29L584.53,36.29z"/>
		<rect x="475.56" y="97.57" class="st1" width="13.34" height="69.73"/>
		<rect x="291.16" y="97.57" class="st1" width="13.34" height="69.73"/>
		<path class="st1" d="M223.23,167.31V97.57h34.93c0,0,20.62,2.67,19.66,23.29c0,0,1.69,17.96-19.17,23.05h-21.83v23.39H223.23z
			 M236.81,110.68v21.13h17.23c0,0,9.96-1.94,9.95-10.56c0,0,0.72-10.08-8.74-10.56L236.81,110.68z"/>
		<path class="st1" d="M397.92,97.57v69.73h13.83v-28.97h30.82v28.97h13.34V97.57h-8.97c-2.54,0.16-4.49,2.31-4.37,4.85v21.83h-31.3
			V97.57L397.92,97.57z"/>
		<path class="st1" d="M661.92,97.57v69.73h13.84v-28.97h30.81v28.97h13.35V97.57h-8.98c-2.54,0.16-4.49,2.31-4.37,4.85v21.83
			h-31.32V97.57L661.92,97.57z"/>
		<path class="st1" d="M364.68,71.13V2.71h15.76c2.07,0.6,3.81,1.99,4.85,3.88l26.2,43.19V2.71h13.34v68.42h-14.03
			c0,0-2.43,0.24-4.61-3.39L379.72,24.3v46.83H364.68z"/>
		<path class="st1" d="M507.68,167.31V98.89h15.76c2.07,0.6,3.81,1.99,4.85,3.88l26.2,43.19V98.89h13.34v68.42h-14.06
			c0,0-2.43,0.24-4.61-3.39l-26.45-43.43v46.83L507.68,167.31z"/>
	</g>
</g>
</svg>
