<svg xmlns="http://www.w3.org/2000/svg" viewBox="0 0 149.95 26.26"><defs><style>.cls-1{fill:#009a44;}</style></defs><g id="Capa_2" data-name="Capa 2"><g id="Capa_1-2" data-name="Capa 1"><path class="cls-1" d="M96.26,16.2a2.91,2.91,0,0,1-2.16,1,1.91,1.91,0,0,1-1.28-.44,1.73,1.73,0,0,1-.59-1.39A2.68,2.68,0,0,1,93,13.45a2.85,2.85,0,0,1,2.13-1,2,2,0,0,1,1.31.43,1.7,1.7,0,0,1,.6,1.37,2.68,2.68,0,0,1-.82,1.92m-.7-6a4.76,4.76,0,0,0-2.53.69.81.81,0,0,0,0-.2c0-.28-.2-.42-.59-.42H91.33c-.3,0-.49.1-.56.47q-1.2,5.73-2.39,11.45a.52.52,0,0,0,0,.17c0,.34.18.5.54.5H90a.6.6,0,0,0,.66-.52c.25-1.24.49-2.48.75-3.72a3,3,0,0,0,2.27.85,5.52,5.52,0,0,0,3.95-1.7,5.22,5.22,0,0,0,1.8-3.88,3.55,3.55,0,0,0-1.1-2.65,3.76,3.76,0,0,0-2.77-1"/><path class="cls-1" d="M106.51,16.2a2.87,2.87,0,0,1-2.13,1,1.87,1.87,0,0,1-1.25-.44,1.78,1.78,0,0,1-.59-1.41,2.68,2.68,0,0,1,.78-1.87,2.82,2.82,0,0,1,2.13-1,1.91,1.91,0,0,1,1.27.43,1.67,1.67,0,0,1,.6,1.35,2.79,2.79,0,0,1-.81,1.94m2.07-5a3.71,3.71,0,0,0-2.7-1,5.55,5.55,0,0,0-4,1.66,5.25,5.25,0,0,0-1.78,3.88,3.56,3.56,0,0,0,1.08,2.68,3.8,3.8,0,0,0,2.76,1,5.49,5.49,0,0,0,3.93-1.69,5.3,5.3,0,0,0,1.78-3.91,3.52,3.52,0,0,0-1.09-2.65"/><path class="cls-1" d="M116.88,16.2a2.91,2.91,0,0,1-2.15,1,1.94,1.94,0,0,1-1.29-.44,1.73,1.73,0,0,1-.59-1.39,2.68,2.68,0,0,1,.81-1.91,2.85,2.85,0,0,1,2.13-1,2,2,0,0,1,1.31.43,1.7,1.7,0,0,1,.6,1.37,2.68,2.68,0,0,1-.82,1.92m-.69-6a4.77,4.77,0,0,0-2.54.69.54.54,0,0,0,0-.2c0-.28-.2-.42-.59-.42H112c-.31,0-.5.1-.57.47Q110.2,16.47,109,22.19a1.11,1.11,0,0,0,0,.17c0,.34.18.5.55.5h1.09a.6.6,0,0,0,.66-.52l.75-3.72a3,3,0,0,0,2.27.85,5.5,5.5,0,0,0,4-1.7,5.22,5.22,0,0,0,1.8-3.88,3.55,3.55,0,0,0-1.1-2.65,3.76,3.76,0,0,0-2.76-1"/><path class="cls-1" d="M129.88,10.75c0-.27-.19-.41-.58-.41h-1.22c-.31-.06-.49.1-.55.47l-1,4.69a2.07,2.07,0,0,1-.68,1.22,2.17,2.17,0,0,1-1.37.47,1.36,1.36,0,0,1-.93-.33,1.34,1.34,0,0,1-.43-1.07,1.06,1.06,0,0,1,0-.32c.33-1.51.65-3,1-4.54a1.21,1.21,0,0,0,0-.18c0-.27-.19-.41-.58-.41h-1.2c-.31-.06-.5.1-.55.47-.35,1.57-.69,3.15-1,4.72a4,4,0,0,0-.1.91,2.82,2.82,0,0,0,1.24,2.46,3.7,3.7,0,0,0,2.1.57,2.82,2.82,0,0,0,1.92-.61c0,.32.21.47.58.47h1a.58.58,0,0,0,.65-.53c.56-2.6,1.11-5.2,1.67-7.8,0-.12,0-.21,0-.25"/><path class="cls-1" d="M134,7.23c0-.28-.18-.42-.55-.42h-1.21c-.31-.06-.5.1-.57.47q-1.22,5.7-2.42,11.38a1.22,1.22,0,0,0,0,.17c0,.34.21.5.6.5H131a.59.59,0,0,0,.66-.53L134,7.49a1,1,0,0,0,0-.26"/><path class="cls-1" d="M139.64,16.21a2.92,2.92,0,0,1-2.15,1,1.91,1.91,0,0,1-1.28-.44,1.74,1.74,0,0,1-.59-1.4,2.66,2.66,0,0,1,.81-1.9,2.83,2.83,0,0,1,2.13-1,2,2,0,0,1,1.31.43,1.69,1.69,0,0,1,.6,1.36,2.75,2.75,0,0,1-.83,1.94m3.94-5.52c0-.28-.19-.42-.58-.42h-1.09c-.31,0-.5.1-.57.48a1.49,1.49,0,0,1,0,.21A3.35,3.35,0,0,0,139,10.2a5.48,5.48,0,0,0-3.93,1.68,5.23,5.23,0,0,0-1.78,3.86,3.56,3.56,0,0,0,1.08,2.67,3.76,3.76,0,0,0,2.76,1.06,4.22,4.22,0,0,0,2.63-.89l-.08.08a.67.67,0,0,0,0,.17c0,.34.2.5.6.5h1a.6.6,0,0,0,.66-.53q.83-3.93,1.67-7.88a1.31,1.31,0,0,0,0-.23"/><path class="cls-1" d="M149.38,10.13H149a3.27,3.27,0,0,0-2,.51c0-.25-.23-.37-.61-.37h-1.12c-.31,0-.5.1-.57.48-.56,2.63-1.13,5.27-1.69,7.91a.59.59,0,0,0,0,.17c0,.34.2.5.59.5h1.1a.59.59,0,0,0,.66-.53l1-4.69a2.11,2.11,0,0,1,2.32-1.68H149a.61.61,0,0,0,.66-.54c.07-.37.14-.75.22-1.13,0-.07,0-.14,0-.19,0-.29-.19-.44-.57-.44"/><path class="cls-1" d="M81.56,16.12a2.85,2.85,0,0,1-2.13,1,1.83,1.83,0,0,1-1.25-.45,1.73,1.73,0,0,1-.58-1.4,2.7,2.7,0,0,1,.78-1.88,2.84,2.84,0,0,1,2.12-1,1.87,1.87,0,0,1,1.28.43,1.64,1.64,0,0,1,.59,1.34,2.79,2.79,0,0,1-.81,2m-.62-6a5.57,5.57,0,0,0-4,1.66,5.28,5.28,0,0,0-1.77,3.88,3.56,3.56,0,0,0,1.08,2.68A3.8,3.8,0,0,0,79,19.39,5.54,5.54,0,0,0,83,17.7a5.35,5.35,0,0,0,1.78-3.91,3.54,3.54,0,0,0-1.09-2.65,3.73,3.73,0,0,0-2.7-1"/><path class="cls-1" d="M71.2,10.12a5.54,5.54,0,0,0-3.94,1.66,5.29,5.29,0,0,0-1.77,3.88,3.56,3.56,0,0,0,1.08,2.68,3.8,3.8,0,0,0,2.77,1.05,5.39,5.39,0,0,0,3.8-1.59c.48-.45.72-.79.72-1s-.12-.32-.35-.44-.57-.27-.85-.42a.83.83,0,0,0-.31-.08.64.64,0,0,0-.5.25,2.72,2.72,0,0,1-2.09,1,1.88,1.88,0,0,1-1.27-.45,1.75,1.75,0,0,1-.58-1.4,2.67,2.67,0,0,1,.79-1.88,2.89,2.89,0,0,1,2.17-1,2,2,0,0,1,1.5.56.8.8,0,0,0,.52.27.69.69,0,0,0,.37-.13l1-.62a.57.57,0,0,0,.31-.49,1.07,1.07,0,0,0-.33-.57,3.79,3.79,0,0,0-3-1.3"/><path class="cls-1" d="M63.7,10.68a3.7,3.7,0,0,0-2.12-.56,3.59,3.59,0,0,0-1.9.45c0-.26-.22-.38-.58-.38H58c-.31-.06-.5.1-.57.47q-.84,4-1.69,7.92a1.49,1.49,0,0,0,0,.17c0,.34.2.5.6.5h1.1a.59.59,0,0,0,.65-.52c.33-1.53.66-3.05,1-4.57a2.13,2.13,0,0,1,.76-1.32,2.07,2.07,0,0,1,1.31-.44,1.34,1.34,0,0,1,1.09.47,1.32,1.32,0,0,1,.29.86,1.69,1.69,0,0,1,0,.33c-.33,1.51-.65,3-1,4.53a.47.47,0,0,0,0,.16c0,.33.19.5.58.5h1.11a.61.61,0,0,0,.67-.53l1-4.73a4.12,4.12,0,0,0,.1-.92,2.73,2.73,0,0,0-1.23-2.39"/><path class="cls-1" d="M52.41,16.12a2.88,2.88,0,0,1-2.15,1A1.89,1.89,0,0,1,49,16.66a1.72,1.72,0,0,1-.59-1.39,2.66,2.66,0,0,1,.81-1.9,2.87,2.87,0,0,1,2.14-1,1.92,1.92,0,0,1,1.3.43,1.68,1.68,0,0,1,.6,1.36,2.73,2.73,0,0,1-.83,1.93m3.94-5.51q0-.42-.57-.42H54.69c-.31-.06-.5.1-.57.47l0,.22a3.32,3.32,0,0,0-2.33-.76,5.48,5.48,0,0,0-3.94,1.68,5.24,5.24,0,0,0-1.77,3.86,3.56,3.56,0,0,0,1.07,2.67,3.76,3.76,0,0,0,2.76,1.06,4.2,4.2,0,0,0,2.63-.89.6.6,0,0,1-.08.08,1.49,1.49,0,0,0,0,.17c0,.34.2.5.59.5h1a.59.59,0,0,0,.66-.53c.56-2.62,1.11-5.25,1.67-7.88a1.31,1.31,0,0,0,0-.23"/><path class="cls-1" d="M42.24,16.12a3,3,0,0,1-2.19,1,1.94,1.94,0,0,1-1.3-.45,1.69,1.69,0,0,1-.6-1.38A2.68,2.68,0,0,1,39,13.37a2.93,2.93,0,0,1,2.16-1,2,2,0,0,1,1.33.43,1.67,1.67,0,0,1,.61,1.36,2.69,2.69,0,0,1-.83,1.93m-.69-6a4.61,4.61,0,0,0-2.55.71l.78-3.44c0-.1,0-.19,0-.24,0-.28-.19-.42-.56-.42H38c-.3-.06-.49.1-.56.47q-1.2,5.69-2.42,11.38a1.41,1.41,0,0,0,0,.18c0,.33.19.49.58.49h1a.58.58,0,0,0,.66-.54v-.18a3.2,3.2,0,0,0,2.34.86,5.58,5.58,0,0,0,4-1.7,5.24,5.24,0,0,0,1.8-3.88,3.56,3.56,0,0,0-1.11-2.66,3.79,3.79,0,0,0-2.76-1"/><path class="cls-1" d="M13.5,0H30.71a2.48,2.48,0,0,1,2.43,3L28.61,24.3a2.47,2.47,0,0,1-2.42,2H7.83c0-.19.08-.37.13-.56.26-1.24.53-2.48.79-3.72a9.4,9.4,0,0,0,5.86,2,12.86,12.86,0,0,0,9.17-4,15,15,0,0,0,2.57-3.2.74.74,0,0,0-.64-1.12H22.47a.74.74,0,0,0-.6.3,8.41,8.41,0,0,1-.73.87,7.46,7.46,0,0,1-5.56,2.52,5,5,0,0,1-3.42-1.17,4.38,4.38,0,0,1-1.35-2,.73.73,0,0,0-.71-.51h-4a.73.73,0,0,0-.72.58l-2,9.46-.12.56h-.8a2.47,2.47,0,0,1-2.42-3Q2.31,12.61,4.58,2A2.47,2.47,0,0,1,7,0H8.86s0,0,0,.06c0,.2-.09.41-.13.62Q7.62,5.86,6.51,11a.75.75,0,0,0,.73.9h3.32a.75.75,0,0,0,.67-.42,8,8,0,0,1,1.42-2A7.34,7.34,0,0,1,18.15,7a5.18,5.18,0,0,1,3.48,1.17,4.51,4.51,0,0,1,1.59,3.14.75.75,0,0,0,.74.68H27.2a.75.75,0,0,0,.75-.73v-.27a8.28,8.28,0,0,0-2.49-6.18,8.68,8.68,0,0,0-6.31-2.41,12.37,12.37,0,0,0-6.6,2.05c.26-1.25.53-2.48.8-3.72,0-.21.09-.42.13-.62l0-.06"/></g></g></svg>